<svg width="144" height="46" viewBox="0 0 144 46" fill="none" xmlns="http://www.w3.org/2000/svg">
<path d="M0.302557 45V1.36364H18.4986C21.7656 1.36364 24.5 1.82528 26.7017 2.74858C28.9176 3.67187 30.5795 4.96449 31.6875 6.62642C32.8097 8.28835 33.3707 10.2131 33.3707 12.4006C33.3707 14.0625 33.0227 15.5469 32.3267 16.8537C31.6307 18.1463 30.6719 19.2187 29.4503 20.071C28.2287 20.9233 26.8153 21.5199 25.2102 21.8608V22.2869C26.9716 22.3722 28.598 22.848 30.0895 23.7145C31.5952 24.581 32.8026 25.7884 33.7116 27.3366C34.6207 28.8707 35.0753 30.6889 35.0753 32.7912C35.0753 35.1349 34.4787 37.2301 33.2855 39.0767C32.0923 40.9091 30.3665 42.358 28.108 43.4233C25.8494 44.4744 23.108 45 19.8835 45H0.302557ZM10.8494 36.4986H17.3693C19.6563 36.4986 21.3395 36.0653 22.419 35.1989C23.5128 34.3324 24.0597 33.125 24.0597 31.5767C24.0597 30.4545 23.7969 29.4886 23.2713 28.679C22.7457 27.8551 22 27.223 21.0341 26.7827C20.0682 26.3281 18.9105 26.1009 17.5611 26.1009H10.8494V36.4986ZM10.8494 19.304H16.6875C17.8381 19.304 18.8608 19.1122 19.7557 18.7287C20.6506 18.3452 21.3466 17.7912 21.8438 17.0668C22.3551 16.3423 22.6108 15.4687 22.6108 14.446C22.6108 12.983 22.0923 11.8324 21.0554 10.9943C20.0185 10.1563 18.6193 9.73722 16.858 9.73722H10.8494V19.304ZM49.5852 45H38.25L52.973 1.36364H67.0142L81.7372 45H70.402L60.1534 12.358H59.8125L49.5852 45ZM48.0724 27.8267H71.7656V35.8381H48.0724V27.8267ZM96.9822 1.36364V45H86.4354V1.36364H96.9822ZM132.24 15.6179C131.998 14.723 131.643 13.9347 131.174 13.2528C130.706 12.5568 130.13 11.9673 129.449 11.4844C128.767 11.0014 127.985 10.6392 127.105 10.3977C126.224 10.142 125.258 10.0142 124.207 10.0142C122.091 10.0142 120.258 10.5256 118.71 11.5483C117.176 12.571 115.99 14.0625 115.152 16.0227C114.314 17.9687 113.895 20.3338 113.895 23.1179C113.895 25.9162 114.299 28.3026 115.109 30.277C115.919 32.2514 117.091 33.7571 118.625 34.794C120.159 35.831 122.02 36.3494 124.207 36.3494C126.139 36.3494 127.772 36.0369 129.108 35.4119C130.457 34.7727 131.48 33.8707 132.176 32.706C132.872 31.5412 133.22 30.1705 133.22 28.5938L135.18 28.8281H124.569V21.1364H143.383V26.9105C143.383 30.8168 142.552 34.1619 140.89 36.946C139.243 39.7301 136.97 41.8679 134.072 43.3594C131.189 44.8509 127.872 45.5966 124.122 45.5966C119.96 45.5966 116.302 44.6946 113.149 42.8906C109.995 41.0866 107.538 38.5156 105.777 35.1776C104.015 31.8253 103.135 27.848 103.135 23.2457C103.135 19.6662 103.667 16.4915 104.733 13.7216C105.798 10.9375 107.282 8.57954 109.186 6.64773C111.103 4.71591 113.319 3.25284 115.833 2.25852C118.362 1.2642 121.082 0.767044 123.994 0.767044C126.522 0.767044 128.873 1.12926 131.047 1.85369C133.234 2.57812 135.166 3.60085 136.842 4.92188C138.532 6.2429 139.903 7.8125 140.954 9.63068C142.005 11.4489 142.659 13.4446 142.914 15.6179H132.24Z" fill="black"/>
</svg>
